<?xml version="1.0" encoding="utf-8"?><svg viewBox="0 0 180 180" xmlns="http://www.w3.org/2000/svg" xmlns:xlink="http://www.w3.org/1999/xlink"><style>:root>svg{display:none}:root>svg:target{display:block}</style><svg viewBox="0 0 85 85" id="ballon-blue" xmlns="http://www.w3.org/2000/svg"><circle cx="42.673" cy="42.946" r="41.502" transform="rotate(7.766 42.673 42.946)"/><defs><radialGradient id="aa" cx="0" cy="0" r="1" gradientUnits="userSpaceOnUse" gradientTransform="matrix(-18.43482 -61.7675 53.13573 -15.85863 55.543 66.172)"><stop stop-color="#045DFA"/><stop offset=".832" stop-color="#0FC1D7"/><stop offset="1" stop-color="#06F6C7"/></radialGradient><radialGradient id="ab" cx="0" cy="0" r="1" gradientUnits="userSpaceOnUse" gradientTransform="rotate(49.414 -4.77 26.196) scale(85.7286)"><stop stop-color="#5EFFDF"/><stop offset="1" stop-color="#0777F1" stop-opacity=".41"/></radialGradient></defs></svg><svg viewBox="0 0 153 153" id="ballon-puple" xmlns="http://www.w3.org/2000/svg"><circle cx="76.386" cy="76.386" r="75.445" transform="rotate(-25.732 76.386 76.386)"/><defs><radialGradient id="ba" cx="0" cy="0" r="1" gradientUnits="userSpaceOnUse" gradientTransform="rotate(90.462 35.081 42.192) scale(144.884)"><stop stop-color="#DEA8FF"/><stop offset=".445" stop-color="#9D6AD9"/><stop offset="1" stop-color="#7A2BF6"/></radialGradient><radialGradient id="bb" cx="0" cy="0" r="1" gradientUnits="userSpaceOnUse" gradientTransform="rotate(80.106 31.05 53.077) scale(141.061)"><stop stop-color="#E2C1FF" stop-opacity=".53"/><stop offset="1" stop-color="#853DF2" stop-opacity=".55"/></radialGradient></defs></svg><svg viewBox="0 0 180 180" id="balloon-purple-blur" xmlns="http://www.w3.org/2000/svg"><g filter="url(#ca)" transform="rotate(-25.732 89.878 89.883)"><circle cx="89.878" cy="89.883" r="65.83"/><circle cx="89.878" cy="89.883" r="65.33"/></g><defs><radialGradient id="cb" cx="0" cy="0" r="1" gradientUnits="userSpaceOnUse" gradientTransform="rotate(90.462 30.502 60.145) scale(125.587)"><stop stop-color="#DEA8FF"/><stop offset=".445" stop-color="#9D6AD9"/><stop offset="1" stop-color="#7A2BF6"/></radialGradient><radialGradient id="cc" cx="0" cy="0" r="1" gradientUnits="userSpaceOnUse" gradientTransform="rotate(80.106 24.67 71.917) scale(122.273)"><stop stop-color="#E2C1FF" stop-opacity=".53"/><stop offset="1" stop-color="#853DF2" stop-opacity=".55"/></radialGradient><filter id="ca" x=".033" y=".038" width="179.69" height="179.69" filterUnits="userSpaceOnUse" color-interpolation-filters="sRGB"><feFlood flood-opacity="0" result="BackgroundImageFix"/><feBlend in="SourceGraphic" in2="BackgroundImageFix" result="shape"/><feGaussianBlur stdDeviation="12" result="effect1_foregroundBlur_2_203"/></filter></defs></svg><svg viewBox="0 0 40 17" id="burger" xmlns="http://www.w3.org/2000/svg"><rect y=".2" width="40" height="3" rx="1.5"/><rect y="13.2" width="40" height="3" rx="1.5"/></svg><svg viewBox="0 0 23 23" id="close" xmlns="http://www.w3.org/2000/svg"><path d="M14.144 11.5l8.062-8.044A1.883 1.883 0 1019.544.794L11.5 8.856 3.456.794A1.883 1.883 0 00.794 3.456L8.856 11.5.794 19.544a1.875 1.875 0 000 2.662 1.874 1.874 0 002.662 0l8.044-8.062 8.044 8.062a1.874 1.874 0 002.662 0 1.875 1.875 0 000-2.662L14.144 11.5z"/></svg><svg viewBox="0 0 128 55" id="logo" xmlns="http://www.w3.org/2000/svg"><circle cx="21.402" cy="27.402" r="20.026" transform="rotate(-25.732 21.402 27.402)"/><path d="M78.578 13v29h-3.484L58.89 19.23h-.29V42H55V13h3.484l16.261 22.826h.29V13h3.543zm5.978 29V13h17.829v3.115H88.157v9.8h12.893v3.114H88.157V42h-3.6zm21.143-25.885V13H128v3.115h-9.35V42h-3.601V16.115h-9.35z"/><defs><radialGradient id="fa" cx="0" cy="0" r="1" gradientUnits="userSpaceOnUse" gradientTransform="rotate(90.462 6.509 15.157) scale(39.1585)"><stop stop-color="#DEA8FF"/><stop offset=".445" stop-color="#9D6AD9"/><stop offset="1" stop-color="#7A2BF6"/></radialGradient><radialGradient id="fb" cx="0" cy="0" r="1" gradientUnits="userSpaceOnUse" gradientTransform="rotate(80.106 4.752 18.174) scale(38.1251)"><stop stop-color="#E2C1FF" stop-opacity=".53"/><stop offset="1" stop-color="#853DF2" stop-opacity=".55"/></radialGradient></defs></svg></svg>